<?xml version="1.0" standalone="no"?>
<!DOCTYPE svg PUBLIC "-//W3C//DTD SVG 20010904//EN"
 "http://www.w3.org/TR/2001/REC-SVG-20010904/DTD/svg10.dtd">
<svg version="1.0" xmlns="http://www.w3.org/2000/svg"
 width="1389.000000pt" height="980.000000pt" viewBox="0 0 1389.000000 980.000000"
 preserveAspectRatio="xMidYMid meet">

<g transform="translate(0.000000,980.000000) scale(0.100000,-0.100000)"
fill="#000000" stroke="none">
<path d="M1290 6710 l0 -1230 635 0 635 0 0 25 0 25 -577 2 -578 3 -3 572 -2
573 577 2 578 3 0 25 0 25 -577 3 -578 2 0 545 0 545 550 0 550 0 0 -245 0
-245 -300 0 -300 0 0 -25 0 -25 330 0 330 0 0 270 0 270 578 -2 577 -3 0 -240
0 -240 -302 -3 -303 -2 0 -605 0 -605 -605 0 -605 0 0 -25 0 -25 605 0 605 0
0 -880 0 -880 -275 0 -275 0 -2 303 -3 302 -25 0 -25 0 0 -325 0 -325 328 -3
327 -2 0 1205 0 1205 305 0 305 0 0 30 0 30 -305 0 -305 0 2 273 3 272 578 3
577 2 0 -580 0 -580 -302 0 -303 0 2 -628 2 -627 23 0 23 0 3 603 2 602 300 0
300 0 0 630 0 630 -300 0 -300 0 0 245 0 245 580 0 580 0 0 -270 0 -270 603
-2 602 -3 3 -272 2 -273 -605 0 -605 0 0 -30 0 -30 630 0 630 0 2 303 3 302
303 3 302 2 0 25 0 25 -910 0 -910 0 0 245 0 245 1488 0 1489 0 2 -218 c1
-120 -1 -230 -4 -245 l-7 -27 -299 0 -299 0 0 -630 0 -630 605 0 605 0 0 -275
0 -275 -880 0 -880 0 -2 603 -3 602 -25 0 -25 0 -3 -602 -2 -603 -300 0 -300
0 0 -330 0 -330 910 0 910 0 -1 -297 -1 -298 604 -5 603 -5 3 -572 2 -573
-580 0 -580 0 0 275 0 275 300 0 300 0 0 25 0 25 -605 0 -605 0 0 300 0 300
-25 0 -25 0 0 -325 0 -325 303 -2 302 -3 2 -300 3 -300 630 -3 630 -2 0 630 0
630 -605 0 -605 0 -2 303 -3 302 -907 3 -908 2 0 275 0 275 1183 -2 1182 -3 3
-302 2 -303 25 0 25 0 0 630 0 630 -602 2 -603 3 -3 273 -2 272 605 0 605 0 2
303 3 302 275 0 275 0 3 -602 2 -603 25 0 25 0 0 630 0 630 -330 0 -330 0 0
-300 0 -300 -580 0 -580 0 2 273 3 272 303 3 302 2 0 270 0 270 1485 0 1485 0
0 -245 0 -245 -605 0 -605 0 0 -25 0 -25 908 -2 907 -3 3 -302 2 -303 300 0
300 0 0 -275 0 -275 -575 0 -575 0 -1 290 c-1 160 -2 296 -3 303 0 6 -12 12
-26 12 l-25 0 -3 -327 -2 -328 605 0 605 0 0 -300 0 -300 30 0 30 0 -2 628 -3
627 -302 3 -303 2 0 300 0 300 -300 0 -299 0 -3 241 c-2 132 -1 243 1 245 2 2
386 4 853 4 l848 0 0 -245 0 -245 -275 0 -275 0 0 -25 0 -25 275 0 275 0 0
-1180 0 -1180 -550 0 -550 0 0 300 0 300 -25 0 -25 0 0 -330 0 -330 630 0 630
0 0 1535 0 1535 -5780 0 -5780 0 0 -1230z"/>
<path d="M9770 6410 l0 -330 25 0 25 0 0 300 0 300 280 0 280 0 0 -575 0 -575
-605 0 -605 0 0 -330 0 -330 300 0 300 0 0 -600 0 -600 303 -2 302 -3 3 -272
2 -273 -305 0 -305 0 0 -305 0 -305 -1485 0 -1485 0 0 275 0 275 300 0 300 0
0 30 0 30 -327 -2 -328 -3 -3 -327 -2 -328 1212 -2 1213 -3 3 -242 2 -243
-1790 0 -1790 0 0 245 0 245 300 0 300 0 0 330 0 330 -300 0 -300 0 0 275 0
275 300 0 300 0 0 300 0 300 275 0 275 0 0 -300 0 -300 30 0 30 0 0 325 0 325
-1212 2 -1213 3 0 575 0 575 303 3 302 2 0 300 0 300 275 0 275 0 0 -575 0
-575 -300 0 -300 0 0 -30 0 -30 328 2 327 3 3 603 2 602 300 0 300 0 0 25 0
25 -630 0 -630 0 0 -300 0 -300 -305 0 -305 0 0 -605 0 -605 -298 0 c-164 0
-301 -3 -304 -6 -3 -3 -4 -14 -1 -25 5 -19 20 -19 609 -19 l604 0 0 -300 0
-300 25 0 25 0 0 300 0 300 580 0 580 0 0 -275 0 -275 -305 0 -305 0 0 -300 0
-300 -275 0 -275 0 0 -30 0 -30 580 0 580 0 -2 -272 -3 -273 -880 0 -880 0 -3
303 -2 302 -300 0 -300 0 0 275 0 275 300 0 300 0 0 25 0 25 -325 0 -325 0 0
-32 c0 -18 0 -153 -1 -300 l0 -268 -304 0 -305 0 0 -30 0 -30 605 0 605 0 0
-300 0 -300 605 0 605 0 0 -245 0 -245 -880 0 -880 0 0 270 0 270 -605 0 -605
0 0 580 0 580 300 0 300 0 0 25 0 25 -630 0 -630 0 0 -25 0 -25 300 0 300 0 0
-580 0 -580 -300 0 -300 0 0 -25 0 -25 907 -2 908 -3 2 -242 2 -243 -1159 0
-1160 0 0 545 0 545 275 0 275 0 0 30 0 30 -275 0 -275 0 0 875 0 875 250 0
250 0 0 -300 0 -300 25 0 25 0 0 330 0 330 -328 -2 -327 -3 -3 -1532 -2 -1533
5780 0 5780 0 0 1230 0 1230 -630 0 -630 0 0 -300 0 -300 -305 0 -305 0 0 -25
0 -25 330 0 330 0 0 300 0 300 550 0 550 0 0 -1150 0 -1150 -1760 0 -1760 0 0
245 0 245 300 0 300 0 0 300 0 300 280 0 280 0 0 -300 0 -300 935 0 935 0 0
25 0 25 -302 2 -303 3 -3 272 -2 273 302 2 303 3 3 328 2 327 -30 0 -30 0 0
-300 0 -300 -602 -2 -603 -3 0 -25 0 -25 303 -3 302 -2 -2 -273 -3 -272 -575
0 -575 0 -3 877 -2 878 302 2 303 3 3 628 2 627 -30 0 -30 0 0 -300 0 -300
-300 0 -300 0 0 -30 0 -30 300 0 300 0 0 -275 0 -275 -300 0 -300 0 0 -300 0
-300 -280 0 -280 0 0 605 0 605 -300 0 -300 0 0 275 0 275 605 0 605 0 0 630
0 630 -330 0 -330 0 0 -330z"/>
</g>
</svg>
